<?xml version="1.0" encoding="UTF-8" standalone="no"?>
<svg
   xmlns:dc="http://purl.org/dc/elements/1.1/"
   xmlns:cc="http://creativecommons.org/ns#"
   xmlns:rdf="http://www.w3.org/1999/02/22-rdf-syntax-ns#"
   xmlns:svg="http://www.w3.org/2000/svg"
   xmlns="http://www.w3.org/2000/svg"
   viewBox="0 0 482.9075 171.73"
   height="171.73"
   width="482.9075"
   xml:space="preserve"
   version="1.1"
   id="svg2"><metadata
     id="metadata8"><rdf:RDF><cc:Work
         rdf:about=""><dc:format>image/svg+xml</dc:format><dc:type
           rdf:resource="http://purl.org/dc/dcmitype/StillImage" /></cc:Work></rdf:RDF></metadata><defs
     id="defs6"><clipPath
       id="clipPath38"
       clipPathUnits="userSpaceOnUse"><path
         id="path40"
         d="m 0,137.384 386.326,0 L 386.326,0 0,0 0,137.384 Z" /></clipPath></defs><g
     transform="matrix(1.25,0,0,-1.25,0,171.73)"
     id="g10"><path
       id="path12"
       style="fill:#4ff900;fill-opacity:1;fill-rule:nonzero;stroke:none"
       d="m 95.276,38.086 -31.834,0 0,62.803 31.834,0 0,-62.803 z" /><g
       transform="translate(100.272,79.3594)"
       id="g14"><path
         id="path16"
         style="fill:#99dbff;fill-opacity:1;fill-rule:nonzero;stroke:none"
         d="m 0,0 -11.889,0 0,18.377 -5.867,0 0,-12.79 -11.89,0 0,12.79 -5.835,0 0,-18.377 -11.89,0 0,39.331 L 0,39.331 0,0 Z" /></g><g
       transform="translate(100.272,79.3594)"
       id="g18"><path
         id="path20"
         style="fill:none;stroke:#231f20;stroke-width:0.25;stroke-linecap:butt;stroke-linejoin:miter;stroke-miterlimit:10;stroke-dasharray:none;stroke-opacity:1"
         d="m 0,0 -11.889,0 0,18.377 -5.867,0 0,-12.79 -11.89,0 0,12.79 -5.835,0 0,-18.377 -11.89,0 0,39.331 L 0,39.331 0,0 Z" /></g><g
       transform="translate(100.2729,35.4766)"
       id="g22"><path
         id="path24"
         style="fill:#686969;fill-opacity:1;fill-rule:nonzero;stroke:none"
         d="m 0,0 -35.481,21.791 0,-20.705 -11.89,0 0,49.885 35.482,-21.791 0,20.022 L 0,49.202 0,0 Z" /></g><g
       transform="translate(138.5122,21.3115)"
       id="g26"><path
         id="path28"
         style="fill:#000000;fill-opacity:1;fill-rule:nonzero;stroke:none"
         d="m 0,0 -31.084,0 -10.824,5.7 -9.956,0 3.792,-3.967 -27.788,0 3.82,3.967 -9.902,0 -10.824,-5.7 -31.084,0 38.239,19.731 47.371,0 L 0,0 Z" /></g><text
       id="text30"
       style="font-variant:normal;font-weight:800;font-stretch:normal;font-size:56.74499893px;font-family:'Gill Sans';-inkscape-font-specification:GillSans-UltraBold;writing-mode:lr-tb;fill:#686969;fill-opacity:1;fill-rule:nonzero;stroke:none"
       transform="matrix(0.90602872,0,0,-1,119.5269,41.5952)"><tspan
         id="tspan32"
         y="0"
         x="0 88.068237 157.2404 232.31403">MEZI</tspan></text>
<g
       id="g34"><g
         clip-path="url(#clipPath38)"
         id="g36"><g
           transform="translate(87.0176,73.6133)"
           id="g42"><path
             id="path44"
             style="fill:#ff0000;fill-opacity:1;fill-rule:nonzero;stroke:none"
             d="m 0,0 c 0,-0.386 -0.386,-0.7 -0.863,-0.7 -0.477,0 -0.863,0.314 -0.863,0.7 0,0.387 0.386,0.7 0.863,0.7 C -0.386,0.7 0,0.387 0,0" /></g></g></g></g></svg>